<?xml version="1.0" standalone="no"?>
<!DOCTYPE svg PUBLIC "-//W3C//DTD SVG 20010904//EN"
 "http://www.w3.org/TR/2001/REC-SVG-20010904/DTD/svg10.dtd">
<svg version="1.0" xmlns="http://www.w3.org/2000/svg"
 width="1600.000000pt" height="1000.000000pt" viewBox="0 0 1600.000000 1000.000000"
 preserveAspectRatio="xMidYMid meet">

<g transform="translate(0.000000,768.000000) scale(0.100000,-0.100000)"
fill="#000000" stroke="none">
<path d="M6690 6203 c-324 -30 -690 -124 -980 -250 -609 -265 -1112 -741
-1357 -1283 l-43 -95 -177 -6 c-152 -5 -186 -9 -235 -28 -80 -31 -159 -106
-200 -189 l-33 -67 0 -525 0 -525 29 -62 c35 -77 113 -153 193 -191 55 -25 68
-27 234 -30 l176 -4 12 -36 c20 -56 125 -263 173 -339 181 -292 466 -585 758
-782 404 -272 817 -426 1340 -498 175 -24 613 -24 795 0 989 132 1802 675
2195 1467 32 63 63 132 71 152 l12 36 186 4 c177 3 189 4 242 29 76 36 129 86
170 161 l34 63 3 534 c2 465 1 540 -13 581 -37 111 -124 196 -236 231 -49 15
-93 19 -227 19 l-167 0 -67 138 c-120 247 -273 459 -477 662 -434 432 -1001
708 -1666 812 -103 16 -189 21 -415 23 -157 1 -305 1 -330 -2z m480 -153 c620
-44 1177 -256 1625 -617 130 -105 324 -305 418 -431 646 -868 560 -1987 -213
-2763 -205 -206 -404 -351 -664 -484 -303 -156 -591 -246 -961 -302 -171 -25
-629 -25 -800 0 -661 99 -1193 355 -1615 777 -791 790 -874 1913 -207 2795 83
109 281 310 402 408 545 440 1289 668 2015 617z m-2920 -1634 c0 -3 -11 -46
-25 -97 -54 -204 -69 -327 -70 -574 0 -246 12 -350 61 -545 13 -52 24 -96 24
-97 0 -2 -57 -3 -127 -3 -148 0 -186 12 -244 77 -64 71 -64 69 -64 583 0 522
0 522 73 593 55 54 97 65 245 66 70 1 127 -1 127 -3z m5795 -31 c35 -21 56
-45 74 -80 l26 -49 0 -496 0 -496 -26 -49 c-15 -30 -42 -62 -68 -80 -42 -30
-44 -30 -192 -33 -82 -2 -149 0 -149 5 0 4 9 39 20 77 48 170 64 308 64 556 0
253 -15 380 -69 576 -14 49 -25 93 -25 97 0 5 67 7 148 5 145 -3 150 -4 197
-33z"/>
<path d="M8484 4660 c-85 -22 -157 -57 -239 -115 -198 -140 -518 -239 -902
-280 -182 -19 -616 -19 -836 0 -396 35 -753 110 -997 211 -149 62 -200 75
-306 81 -332 18 -625 -195 -710 -517 -23 -87 -24 -254 -1 -340 32 -121 91
-225 181 -315 89 -90 156 -132 312 -195 369 -150 850 -256 1394 -307 268 -24
863 -24 1090 0 660 73 1210 258 1586 536 198 146 296 337 296 576 0 116 -18
198 -67 300 -86 179 -266 325 -455 369 -91 22 -256 20 -346 -4z m-2391 -717
c139 -66 235 -203 245 -348 4 -68 3 -74 -18 -85 -16 -9 -29 -9 -46 -1 -24 10
-28 22 -39 99 -25 186 -230 314 -416 258 -133 -40 -215 -144 -234 -298 -7 -56
-32 -77 -71 -59 -33 15 -39 50 -20 131 20 89 46 141 104 202 92 99 193 140
332 135 82 -2 104 -7 163 -34z m1782 2 c173 -46 306 -197 322 -368 7 -74 -4
-97 -43 -97 -35 0 -50 23 -58 85 -13 114 -78 205 -183 257 -58 28 -77 33 -143
33 -170 -1 -294 -111 -324 -288 -13 -77 -27 -94 -69 -83 -35 8 -43 42 -29 118
46 249 287 405 527 343z"/>
</g>
</svg>
